<?xml version="1.0" encoding="UTF-8"?>
<svg id="Layer_2" data-name="Layer 2" xmlns="http://www.w3.org/2000/svg" xmlns:xlink="http://www.w3.org/1999/xlink" viewBox="0 0 273.26 53.84">
  <defs>
    <style>
      .cls-1 {
        fill: none;
      }

      .cls-2 {
        fill: #ee2d36;
      }

      .cls-3 {
        clip-path: url(#clippath);
      }
    </style>
    <clipPath id="clippath">
      <rect class="cls-1" width="72" height="53.84"/>
    </clipPath>
  </defs>
  <g id="Layer_1-2" data-name="Layer 1">
    <g id="bb30006f88">
      <g class="cls-3">
        <path class="cls-2" d="M29.82,25.15l4.46-4.42c.94-.94,2.46-.93,3.4.01l4.52,4.54c.94.94.93,2.47-.02,3.41l-4.46,4.42c-.94.93-2.46.93-3.4-.02l-4.52-4.54c-.94-.94-.93-2.47.02-3.4ZM68.5,18.5l-15.11-15.2c-4.35-4.38-11.42-4.4-15.8-.06l9.83,9.89,11.8,11.88.04.04h0c1.05,1.1,1.03,2.83-.05,3.9l-11.89,11.79-.04.04c-.96.92-2.35-.58-1.41-1.52l6.61-6.55c3.15-3.12,3.17-8.2.04-11.34L35.19,3.9c-4.68-4.7-12.28-4.73-16.99-.07L3.56,18.32c-4.72,4.68-4.76,12.3-.07,17.02l15.11,15.2c4.35,4.37,11.42,4.4,15.8.06l-9.83-9.89-11.8-11.88-.04-.04c-1.05-1.1-1.03-2.83.06-3.9l11.89-11.78.04-.04c.96-.92,2.35.58,1.41,1.52l-6.61,6.55c-3.15,3.12-3.17,8.2-.05,11.35l17.35,17.45c4.68,4.71,12.28,4.74,16.99.07l14.63-14.49c4.72-4.68,4.75-12.31.06-17.02"/>
      </g>
      <path class="cls-2" d="M86.44,27.83v-1.23c0-2.53.49-4.7,1.48-6.52.98-1.83,2.39-3.24,4.21-4.23,1.83-.98,4.01-1.48,6.52-1.48,3.55,0,6.35.92,8.4,2.75,2.05,1.83,3.23,4.41,3.52,7.73h-5.83c-.6-3.69-2.66-5.54-6.17-5.54-1.92,0-3.46.64-4.63,1.9-1.17,1.25-1.75,3.08-1.75,5.5v1.02c0,2.43.58,4.28,1.75,5.54,1.17,1.25,2.71,1.88,4.63,1.88,3.57,0,5.63-1.84,6.17-5.54h5.83c-.29,3.28-1.47,5.84-3.52,7.69-2.04,1.85-4.84,2.77-8.4,2.77-2.52,0-4.69-.49-6.52-1.48-1.82-.98-3.22-2.4-4.21-4.23-.99-1.83-1.48-4.01-1.48-6.52Z"/>
      <path class="cls-2" d="M125.69,30.35v-8.73h5.44v18h-2.73l-1.67-5.23c-.47,1.95-1.29,3.38-2.46,4.29s-2.54,1.38-4.13,1.38c-2,0-3.64-.68-4.9-2.04-1.25-1.36-1.88-3.38-1.88-6.04v-10.35h5.42v9.58c0,1.52.26,2.57.77,3.17.53.6,1.33.9,2.42.9s1.97-.4,2.67-1.19c.69-.79,1.04-2.03,1.04-3.73Z"/>
      <path class="cls-2" d="M147.09,21.16c1.4,0,2.69.37,3.85,1.1,1.17.74,2.09,1.79,2.79,3.15.71,1.36,1.06,2.98,1.06,4.85v.69c0,1.86-.35,3.48-1.06,4.85-.7,1.36-1.63,2.41-2.79,3.15-1.17.73-2.45,1.1-3.85,1.1-1.72,0-3.23-.49-4.52-1.48-1.29-1-2.18-2.42-2.67-4.25l-1.67,5.29h-2.71V14.81h5.44v10.23c.61-1.26,1.45-2.22,2.52-2.88,1.08-.67,2.28-1,3.6-1ZM145.17,35.37c1.29,0,2.31-.39,3.06-1.17.75-.78,1.13-1.96,1.13-3.56s-.38-2.79-1.13-3.58c-.75-.8-1.77-1.21-3.06-1.21s-2.32.41-3.08,1.21c-.75.81-1.13,2-1.13,3.58s.38,2.72,1.13,3.52c.76.81,1.79,1.21,3.08,1.21Z"/>
      <path class="cls-2" d="M175.88,29.54c0,.86-.04,1.62-.13,2.27h-13.56c.15,1.41.57,2.42,1.27,3.04.69.63,1.61.94,2.77.94s1.98-.2,2.52-.6c.54-.42.94-.94,1.19-1.58h5.65c-.18,1.14-.64,2.2-1.35,3.19-.71.99-1.7,1.78-2.98,2.38-1.27.59-2.85.9-4.75.9s-3.7-.38-5.15-1.13c-1.45-.76-2.55-1.82-3.31-3.19-.77-1.36-1.15-2.96-1.15-4.79v-.69c0-1.83.38-3.43,1.15-4.79.76-1.38,1.86-2.44,3.31-3.19,1.46-.75,3.21-1.13,5.25-1.13,1.93,0,3.58.36,4.96,1.08,1.39.71,2.45,1.7,3.19,2.96.75,1.25,1.13,2.7,1.13,4.33ZM166.49,25.31c-1.18,0-2.14.28-2.88.83-.72.56-1.18,1.45-1.38,2.67h8.21c-.13-1.19-.53-2.07-1.21-2.65-.68-.57-1.6-.85-2.75-.85Z"/>
      <path d="M187.88,30.68h5.65c.01,2.95,1.47,4.42,4.38,4.42s4.42-1.47,4.42-4.42v-10.92h-12.81v-4.96h18.5v15.94c0,2.95-.85,5.24-2.56,6.88-1.7,1.63-4.21,2.44-7.54,2.44s-5.76-.81-7.44-2.44c-1.68-1.64-2.54-3.95-2.58-6.94Z"/>
      <path d="M220.79,40.06c-2.02,0-3.75-.37-5.21-1.1-1.45-.75-2.55-1.81-3.31-3.19-.77-1.38-1.15-2.96-1.15-4.77v-.75c0-1.83.38-3.43,1.15-4.79.76-1.36,1.86-2.42,3.31-3.17,1.46-.75,3.19-1.13,5.21-1.13s3.76.38,5.19,1.13c1.44.75,2.55,1.81,3.31,3.17.78,1.36,1.17,2.96,1.17,4.79v.75c0,1.81-.39,3.4-1.17,4.77-.77,1.38-1.87,2.44-3.31,3.19-1.43.73-3.16,1.1-5.19,1.1ZM220.79,35.51c1.32,0,2.35-.41,3.1-1.23.75-.82,1.13-2.05,1.13-3.71s-.38-2.84-1.13-3.65c-.75-.8-1.79-1.21-3.1-1.21s-2.33.41-3.08,1.21c-.75.81-1.13,2.02-1.13,3.65s.38,2.89,1.13,3.71c.75.82,1.78,1.23,3.08,1.23Z"/>
      <path d="M245.3,21.16c1.4,0,2.69.37,3.85,1.1,1.17.74,2.09,1.79,2.79,3.15.71,1.36,1.06,2.98,1.06,4.85v.69c0,1.86-.35,3.48-1.06,4.85-.7,1.36-1.63,2.41-2.79,3.15-1.17.73-2.45,1.1-3.85,1.1-1.72,0-3.23-.49-4.52-1.48-1.29-1-2.18-2.42-2.67-4.25l-1.67,5.29h-2.71V14.81h5.44v10.23c.61-1.26,1.45-2.22,2.52-2.88,1.08-.67,2.28-1,3.6-1ZM243.38,35.37c1.29,0,2.31-.39,3.06-1.17.75-.78,1.13-1.96,1.13-3.56s-.38-2.79-1.13-3.58c-.75-.8-1.77-1.21-3.06-1.21s-2.32.41-3.08,1.21c-.75.81-1.13,2-1.13,3.58s.38,2.72,1.13,3.52c.76.81,1.79,1.21,3.08,1.21Z"/>
      <path d="M254.84,33.58h5.33c.15.7.52,1.27,1.1,1.73.59.45,1.61.67,3.06.67s2.36-.17,2.88-.52c.51-.34.77-.72.77-1.13,0-.32-.12-.6-.35-.85-.22-.25-.68-.48-1.38-.69-.68-.21-1.75-.4-3.21-.58-2.04-.23-3.64-.59-4.77-1.08-1.14-.5-1.95-1.11-2.42-1.85-.46-.73-.69-1.59-.69-2.56s.3-1.88.92-2.71c.61-.84,1.54-1.53,2.79-2.04,1.26-.53,2.86-.79,4.79-.79,2.05,0,3.73.29,5.04.85,1.3.57,2.29,1.34,2.96,2.31.67.96,1.05,2.05,1.17,3.27h-5.33c-.11-.75-.44-1.33-.98-1.75-.53-.43-1.46-.65-2.79-.65s-2.16.18-2.63.54c-.47.35-.71.72-.71,1.1,0,.29.11.57.33.83.23.25.71.48,1.44.69.72.21,1.83.41,3.33.58,1.98.22,3.54.6,4.67,1.13,1.13.52,1.92,1.15,2.38,1.9.47.75.71,1.6.71,2.54s-.32,1.83-.96,2.69c-.64.85-1.61,1.54-2.92,2.06-1.29.53-2.97.79-5.04.79-2.2,0-3.97-.28-5.31-.83-1.35-.55-2.35-1.32-3.02-2.29-.66-.97-1.04-2.09-1.17-3.35Z"/>
    </g>
  </g>
</svg>