<svg xmlns="http://www.w3.org/2000/svg" version="1.1" xmlns:xlink="http://www.w3.org/1999/xlink" width="453.99" height="339.08"><svg id="SvgjsSvg1035" data-name="Layer 2" xmlns="http://www.w3.org/2000/svg" xmlns:xlink="http://www.w3.org/1999/xlink" viewBox="0 0 453.99 339.08">
  <defs>
    <style>
      .cls-1 {
        fill: none;
      }

      .cls-2 {
        fill: #ee2d36;
      }

      .cls-3 {
        clip-path: url(#clippath);
      }
    </style>
    <clipPath id="SvgjsClipPath1034">
      <rect class="cls-1" width="453.99" height="339.08"></rect>
    </clipPath>
  </defs>
  <g id="SvgjsG1033" data-name="Layer 1">
    <g id="SvgjsG1032" data-name="442429c89b">
      <g class="cls-3">
        <path class="cls-2" d="M188.04,158.39l28.11-27.81c5.94-5.89,15.53-5.85,21.43.08l28.46,28.59c5.91,5.94,5.87,15.54-.08,21.43l-28.11,27.81c-5.95,5.88-15.54,5.84-21.44-.09l-28.46-28.59c-5.91-5.94-5.88-15.54.08-21.44ZM431.94,116.51l-95.29-95.75c-27.42-27.54-71.99-27.71-99.62-.39l62.02,62.31,74.42,74.77.26.25-.02.02c6.61,6.92,6.5,17.79-.34,24.56l-74.99,74.19-.25.26c-6.09,5.79-14.84-3.67-8.88-9.57l41.72-41.27c19.85-19.65,19.98-51.66.27-71.45L221.87,24.55c-29.49-29.63-77.45-29.82-107.17-.41L22.46,115.39c-29.79,29.47-29.97,77.48-.41,107.18l95.3,95.74c27.42,27.54,71.98,27.71,99.6.39l-62.01-62.3-74.43-74.78-.26-.26v-.02c-6.59-6.92-6.49-17.8.35-24.56l75-74.19.26-.25c6.08-5.79,14.84,3.66,8.86,9.57l-41.71,41.27c-19.85,19.64-19.98,51.65-.28,71.45l109.38,109.89c29.5,29.63,77.45,29.82,107.17.42l92.24-91.26c29.79-29.46,29.97-77.48.42-107.17"></path>
      </g>
    </g>
  </g>
</svg><style>@media (prefers-color-scheme: light) { :root { filter: none; } }
@media (prefers-color-scheme: dark) { :root { filter: none; } }
</style></svg>